<svg width="165" height="34" viewBox="0 0 165 34" fill="none" xmlns="http://www.w3.org/2000/svg">
<path d="M44.9366 24.1396C49.6917 24.1396 51.7744 22.6961 51.7744 19.9002C51.7744 17.3763 50.3517 16.1993 46.9145 15.6941C46.2544 15.5931 44.3502 15.2899 43.7927 15.2233C41.6064 14.8902 41.0857 14.5504 41.0857 13.8098C41.0857 13.0026 41.8494 12.5318 44.3491 12.5318C46.5711 12.5318 47.4039 12.9359 47.7161 13.4067C47.8297 13.6838 47.8774 13.9832 47.8555 14.2817H51.2225C51.2347 13.7224 51.1526 13.165 50.9794 12.6328C50.3194 10.7818 48.3416 9.73916 44.1785 9.73916C39.7701 9.73916 37.6184 11.3203 37.6184 13.6421C37.6184 16.196 39.041 17.5118 42.165 17.9482C42.6856 18.0159 44.6646 18.3179 45.0805 18.3857C47.3716 18.7188 48.3137 18.9908 48.3137 19.9335C48.3137 20.9095 47.4463 21.4481 44.8775 21.4481C42.4481 21.4481 41.1638 21.2127 40.9207 20.4387C40.8425 20.1652 40.8075 19.8813 40.817 19.5971H37.3698C37.3708 20.0716 37.4175 20.5449 37.5091 21.0106C38.1335 23.2646 40.3198 24.1396 44.9366 24.1396ZM61.4584 24.1396C63.2722 24.2407 65.0745 23.7954 66.6305 22.8616C67.8258 22.0876 68.6721 20.8811 68.9908 19.4972H65.5546C65.4662 19.7886 65.3147 20.0572 65.1107 20.284C64.9067 20.5108 64.6552 20.6902 64.3739 20.8096C63.4556 21.2533 62.4443 21.4725 61.4239 21.4492C60.1632 21.5205 58.9224 21.1116 57.9532 20.3055C57.6557 20.036 57.4161 19.7092 57.249 19.3449C57.0819 18.9805 56.9907 18.5862 56.981 18.1858H69.0956C69.3452 16.1993 68.891 14.1882 67.8112 12.4996C66.5959 10.8507 64.4787 9.77469 61.3893 9.77469C60.1549 9.69967 58.9202 9.91659 57.786 10.4077C56.6519 10.8989 55.6505 11.6503 54.8638 12.6006C53.9372 13.8429 53.4601 15.361 53.5103 16.9078C53.435 18.4781 53.8869 20.0286 54.7946 21.3148C56.1827 23.2991 58.5775 24.1396 61.4596 24.1396H61.4584ZM65.6237 15.6608H56.9464C57.0196 14.8795 57.3926 14.1564 57.9877 13.6421C58.9648 12.8781 60.1826 12.4845 61.4239 12.5318C62.6621 12.4712 63.8774 12.8798 64.8255 13.6754C65.0892 13.9334 65.2964 14.243 65.434 14.5847C65.5715 14.9264 65.6365 15.2928 65.6248 15.6608H65.6237ZM74.7872 23.9042V15.6608C74.8101 15.2655 74.9129 14.8789 75.0894 14.5241C75.2659 14.1693 75.5124 13.8537 75.8143 13.596C76.1162 13.3384 76.4672 13.1441 76.8463 13.0248C77.2253 12.9054 77.6247 12.8635 78.0204 12.9015C79.8254 12.9015 80.8668 13.8431 80.8668 15.3243V23.9042H84.1959V15.5942C84.1959 13.8442 85.5839 12.9026 87.3176 12.9026C89.7124 12.9026 90.2331 14.1474 90.2331 15.5264V16.6701C90.1423 19.0822 90.1888 21.4974 90.3725 23.9042H93.531C93.4273 23.7699 93.3916 20.1023 93.3916 14.315C93.3916 11.6912 92.1073 9.8069 88.4972 9.8069C86.1369 9.8069 84.3319 10.6486 83.7421 12.3308C83.1178 10.6486 81.451 9.8069 79.2992 9.8069C77.1809 9.8069 75.2376 10.7485 74.6478 12.2964V10.0756H71.2117V23.9042H74.7872ZM100.265 28.2447V22.0543C101.237 23.4001 103.181 24.0053 105.505 24.0053C109.705 24.0053 112.306 21.4814 112.306 16.7712C112.306 12.162 109.668 9.77581 105.537 9.77581C103.038 9.77581 100.955 10.7518 100.262 12.1642L100.158 10.0778H96.7564V28.2458L100.265 28.2447ZM104.465 21.1794C101.584 21.1794 100.16 19.7359 100.16 16.9733C100.16 14.4494 101.445 12.7672 104.465 12.7672C107.658 12.7672 108.77 14.4494 108.77 16.9733C108.77 19.4971 107.59 21.1794 104.466 21.1794H104.465ZM121.786 24.1396C123.6 24.2407 125.402 23.7954 126.958 22.8616C128.153 22.0876 129 20.8811 129.318 19.4972H125.882C125.794 19.7886 125.642 20.0572 125.438 20.284C125.234 20.5108 124.983 20.6902 124.702 20.8096C123.783 21.2533 122.772 21.4725 121.752 21.4492C120.491 21.5205 119.25 21.1116 118.281 20.3055C117.983 20.036 117.744 19.7092 117.577 19.3449C117.41 18.9805 117.318 18.5862 117.309 18.1858H129.423C129.673 16.1993 129.219 14.1882 128.139 12.4996C126.924 10.8507 124.806 9.77469 121.717 9.77469C120.483 9.69967 119.248 9.91659 118.114 10.4077C116.98 10.8989 115.978 11.6503 115.191 12.6006C114.265 13.8429 113.788 15.361 113.838 16.9078C113.763 18.4781 114.215 20.0286 115.122 21.3148C116.51 23.2991 118.905 24.1396 121.786 24.1396ZM125.951 15.6608H117.274C117.347 14.8795 117.72 14.1564 118.315 13.6421C119.292 12.8781 120.51 12.4845 121.752 12.5318C122.99 12.4712 124.205 12.8798 125.153 13.6754C125.417 13.9335 125.624 14.2432 125.761 14.5849C125.898 14.9266 125.963 15.2929 125.951 15.6608ZM135.149 23.9042V17.0066C135.121 16.4699 135.207 15.9333 135.402 15.4321C135.597 14.9309 135.896 14.4763 136.279 14.0983C136.663 13.7202 137.122 13.4271 137.628 13.2383C138.133 13.0494 138.672 12.9691 139.211 13.0026C140.327 12.9677 141.441 13.1155 142.509 13.4401V10.0423C141.655 9.85145 140.781 9.76125 139.906 9.77359C137.684 9.77359 135.463 10.9517 135.08 12.4651V10.11H131.644V23.9387H135.147L135.149 23.9042ZM148.027 8.46112V5.09668H144.347V8.46112H148.027ZM148.096 23.9042C147.992 23.8365 147.956 23.4667 147.956 22.4607V10.0767H144.415V22.5296C144.415 23.5389 144.45 23.842 144.589 23.8754H148.095L148.096 23.9042ZM158.162 24.1396C162.917 24.1396 165 22.6961 165 19.9002C165 17.3763 163.577 16.1993 160.14 15.6941C159.48 15.5931 157.576 15.2899 157.018 15.2233C154.832 14.8902 154.311 14.5504 154.311 13.8098C154.311 13.0026 155.075 12.5318 157.575 12.5318C159.796 12.5318 160.63 12.9359 160.942 13.4067C161.055 13.6838 161.103 13.9832 161.081 14.2817H164.448C164.46 13.7224 164.378 13.165 164.205 12.6328C163.545 10.7818 161.567 9.73916 157.404 9.73916C152.996 9.73916 150.844 11.3203 150.844 13.6421C150.844 16.196 152.267 17.5118 155.391 17.9482C155.911 18.0159 157.89 18.3179 158.306 18.3857C160.597 18.7188 161.539 18.9908 161.539 19.9335C161.539 20.9095 160.672 21.4481 158.103 21.4481C155.674 21.4481 154.389 21.2127 154.146 20.4387C154.068 20.1652 154.033 19.8813 154.043 19.5971H150.676C150.677 20.0716 150.723 20.5449 150.815 21.0106C151.36 23.2646 153.543 24.1396 158.163 24.1396H158.162Z" fill="white"/>
<path d="M24.5752 19.6005L12.7705 17.6429L0.0148696 15.5332V18.4635C0.0140622 18.7276 0.107787 18.9833 0.279221 19.1848C0.450656 19.3862 0.688576 19.5202 0.950278 19.5628L12.7772 21.5614L21.0688 22.9605C21.2251 22.9868 21.367 23.0676 21.4691 23.1884C21.5712 23.3092 21.6269 23.4622 21.6262 23.6201V25.6354C21.6268 25.7736 21.5841 25.9086 21.5042 26.0216C21.4243 26.1346 21.3111 26.22 21.1803 26.2661L13.0593 29.0864C12.8659 29.152 12.6562 29.152 12.4628 29.0864L4.30615 26.2516C4.17336 26.2062 4.0583 26.1203 3.97726 26.0061C3.89622 25.8919 3.85331 25.7552 3.85461 25.6154L3.88025 22.6885L0.00817958 22.0344V27.7928C0.0078953 28.0193 0.0771652 28.2405 0.206699 28.4267C0.336232 28.6129 0.519835 28.7551 0.732871 28.8344L12.4394 33.2526C12.6461 33.3276 12.8727 33.3276 13.0794 33.2526L24.7859 28.8344C24.9989 28.7551 25.1825 28.6129 25.3121 28.4267C25.4416 28.2405 25.5109 28.0193 25.5106 27.7928V20.6931C25.5098 20.4302 25.4154 20.176 25.2441 19.976C25.0728 19.7759 24.8357 19.6428 24.5752 19.6005Z" fill="url(#paint0_linear)"/>
<path d="M0.935418 13.7188L12.7612 15.6797L25.5002 17.7894V14.8591C25.501 14.595 25.4073 14.3393 25.2358 14.1379C25.0644 13.9364 24.8265 13.8024 24.5648 13.7599L12.7568 11.7734L4.44849 10.3721C4.29217 10.3458 4.15031 10.265 4.04821 10.1442C3.94611 10.0234 3.89041 9.87044 3.89104 9.71254V7.69721C3.89051 7.559 3.93314 7.42404 4.01305 7.31104C4.09295 7.19804 4.20617 7.11257 4.33701 7.0665L12.4558 4.22284C12.6489 4.15565 12.8591 4.15565 13.0522 4.22284L21.2089 7.05763C21.3406 7.104 21.4545 7.19031 21.5345 7.30442C21.6145 7.41853 21.6566 7.55471 21.6549 7.69387L21.6303 10.6208L25.5024 11.2759V5.51754C25.5027 5.29105 25.4334 5.06987 25.3039 4.8837C25.1744 4.69754 24.9908 4.55528 24.7777 4.47601L13.0712 0.0578157C12.8649 -0.0192719 12.6375 -0.0192719 12.4312 0.0578157L0.724702 4.47601C0.511665 4.55528 0.328066 4.69754 0.198533 4.8837C0.0689998 5.06987 -0.000270085 5.29105 1.41933e-05 5.51754V12.6173C-0.00132509 12.8817 0.0921571 13.138 0.263639 13.3399C0.43512 13.5419 0.673336 13.6762 0.935418 13.7188Z" fill="url(#paint1_linear)"/>
<g opacity="0.1">
<path opacity="0.1" d="M13.0499 4.22946L21.2066 7.0698C21.3364 7.11549 21.4488 7.19994 21.5286 7.31161C21.6084 7.42329 21.6517 7.55676 21.6526 7.69383L21.618 10.6374L25.5057 11.2959V5.51084C25.5052 5.2842 25.435 5.06313 25.3047 4.87734C25.1743 4.69156 24.99 4.54994 24.7765 4.47153L13.0789 0.0377985C12.9657 0.00925959 12.8488 -0.00234783 12.7322 0.00337032V4.19393C12.8391 4.17001 12.951 4.18252 13.0499 4.22946Z" fill="url(#paint2_linear)"/>
<path opacity="0.1" d="M24.5734 19.5836L12.7721 17.6094V21.5235L21.0681 22.9092C21.2216 22.9411 21.3599 23.0233 21.4609 23.1427C21.5619 23.262 21.6199 23.4116 21.6256 23.5676V25.5763C21.6245 25.7132 21.5811 25.8464 21.5013 25.9579C21.4215 26.0694 21.3092 26.1536 21.1796 26.1993L13.0575 29.0396C12.9679 29.068 12.8738 29.0797 12.7799 29.074V33.2657C12.887 33.2594 12.9923 33.2362 13.0921 33.1969L24.7897 28.7631C25.0032 28.6847 25.1875 28.5431 25.3179 28.3573C25.4482 28.1715 25.5183 27.9504 25.5188 27.7238V20.6929C25.5217 20.4256 25.4276 20.1663 25.254 19.9626C25.0803 19.7588 24.8386 19.6243 24.5734 19.5836Z" fill="url(#paint3_linear)"/>
<path opacity="0.1" d="M25.511 14.5748C25.5144 14.3085 25.4216 14.0499 25.2495 13.846C25.0774 13.6422 24.8374 13.5068 24.5734 13.4645L12.7721 11.458V15.3721L25.511 17.4818V14.5748Z" fill="url(#paint4_linear)"/>
</g>
<defs>
<linearGradient id="paint0_linear" x1="0.00817871" y1="24.421" x2="25.5106" y2="24.421" gradientUnits="userSpaceOnUse">
<stop stop-color="#EE4036"/>
<stop offset="0.188" stop-color="#ED3B3B"/>
<stop offset="0.434" stop-color="#ED2F4C"/>
<stop offset="0.712" stop-color="#EC1A67"/>
<stop offset="1" stop-color="#EB008B"/>
</linearGradient>
<linearGradient id="paint1_linear" x1="0" y1="8.89471" x2="25.5024" y2="8.89471" gradientUnits="userSpaceOnUse">
<stop stop-color="#EE4036"/>
<stop offset="0.188" stop-color="#ED3B3B"/>
<stop offset="0.434" stop-color="#ED2F4C"/>
<stop offset="0.712" stop-color="#EC1A67"/>
<stop offset="1" stop-color="#EB008B"/>
</linearGradient>
<linearGradient id="paint2_linear" x1="12.7322" y1="-30.6272" x2="25.4929" y2="-30.6272" gradientUnits="userSpaceOnUse">
<stop stop-color="#020202"/>
<stop offset="1"/>
</linearGradient>
<linearGradient id="paint3_linear" x1="12.7721" y1="-51.7794" x2="25.5189" y2="-51.7794" gradientUnits="userSpaceOnUse">
<stop stop-color="#020202"/>
<stop offset="1"/>
</linearGradient>
<linearGradient id="paint4_linear" x1="12.7594" y1="-39.9912" x2="25.4984" y2="-39.9912" gradientUnits="userSpaceOnUse">
<stop stop-color="#020202"/>
<stop offset="1"/>
</linearGradient>
</defs>
</svg>
