<svg width="30" height="30" viewBox="0 0 30 30" fill="none" xmlns="http://www.w3.org/2000/svg">
<path d="M15 30C23.2843 30 30 23.2843 30 15C30 6.71572 23.2843 0 15 0C6.71572 0 0 6.71572 0 15C0 23.2843 6.71572 30 15 30Z" fill="white"/>
<path d="M5.76367 26.819C6.26086 25.818 6.91765 24.9047 7.70814 24.1145C9.64204 22.1805 12.265 21.0938 15 21.0937C16.3544 21.0938 17.6956 21.3608 18.9469 21.8793C20.1982 22.3977 21.3352 23.1575 22.2928 24.1154C23.083 24.9057 23.7394 25.8189 24.2363 26.8199C21.601 28.8853 18.3481 30.0053 15 30C11.6517 30.005 8.39882 28.8846 5.76367 26.819ZM8.12527 12.4988C8.12552 10.6757 8.84998 8.92729 10.1392 7.63824C11.4284 6.34919 13.1768 5.625 15 5.625C16.8231 5.625 18.5715 6.34919 19.8607 7.63824C21.15 8.92729 21.8744 10.6757 21.8747 12.4988C21.8747 14.3221 21.1504 16.0708 19.8612 17.3602C18.572 18.6496 16.8233 19.3741 15 19.3744C13.1768 19.3741 11.4283 18.6499 10.1391 17.3607C8.84989 16.0715 8.12552 14.322 8.12527 12.4988Z" fill="#333333"/>
</svg>
