<svg width="94" height="94" viewBox="0 0 94 94" fill="none" xmlns="http://www.w3.org/2000/svg">
<path d="M49.6111 0C45.1173 0 40.8821 1.06011 37.096 2.90094C36.0698 2.72339 35.0202 2.61111 33.9444 2.61111C23.8498 2.61111 15.6666 10.7943 15.6666 20.8889V52.2222H15.7136C16.1915 69.1083 29.999 82.6573 47 82.6573C64.0009 82.6573 77.8085 69.1083 78.2863 52.2222H78.3333V28.7222C78.3333 12.8597 65.4736 0 49.6111 0Z" fill="#FFAC33"/>
<path d="M70.5 54.833H23.5C17.732 54.833 13.0555 59.5095 13.0555 65.2775V93.9997H80.9444V65.2775C80.9444 59.5095 76.2679 54.833 70.5 54.833Z" fill="#9268CA"/>
<path d="M36.5556 13.0557C36.5556 13.0557 36.5477 26.9154 23.5 28.5552V44.389C23.5 57.3688 34.0202 67.889 47 67.889C59.9798 67.889 70.5 57.3688 70.5 44.389V31.2838C41.4906 30.3021 36.5556 13.0557 36.5556 13.0557Z" fill="#FFDC5D"/>
<path d="M26.1111 70.5H28.7222V94H26.1111V70.5Z" fill="#7450A8"/>
<path d="M12.2773 69.1804L11.5383 69.0264H10.2041C10.2041 68.8749 10.2641 68.7339 10.2955 68.5851C9.38678 68.0237 8.86978 66.9532 9.09956 65.8487C9.39201 64.4334 10.7785 63.5248 12.1963 63.8146L17.6562 64.9452H22.0324C24.2858 64.9452 26.111 66.773 26.111 69.029V73.1102H16.3271C16.3271 73.1102 12.4601 71.3633 12.2773 69.1804Z" fill="#FCAB40"/>
<path d="M0 66.9882C0 65.8602 0.913889 64.9463 2.03928 64.9463L14.2854 66.9882H24.0692C25.1972 66.9882 26.1085 67.9047 26.1085 69.0275V73.1112H13.0556L2.03928 69.0301C2.03928 69.0301 0 68.1162 0 66.9882Z" fill="#FFDC5D"/>
<path d="M10.4445 94.0002H26.1111V73.1113H13.0556L10.4445 94.0002Z" fill="#9268CA"/>
<path d="M65.2778 70.5H67.8889V94H65.2778V70.5Z" fill="#7450A8"/>
<path d="M81.7225 69.1804L82.4615 69.0264H83.7958C83.7958 68.8749 83.7357 68.7339 83.7044 68.5851C84.613 68.0237 85.13 66.9532 84.9003 65.8487C84.6078 64.4334 83.2239 63.5248 81.8061 63.8146L76.3463 64.9452H71.97C69.7166 64.9452 67.8915 66.773 67.8915 69.029V73.1102H77.6753C77.6727 73.1102 81.5398 71.3633 81.7225 69.1804Z" fill="#FCAB40"/>
<path d="M94 66.9882C94 65.8602 93.0861 64.9463 91.9608 64.9463L79.712 66.9882H69.9282C68.8002 66.9882 67.8889 67.9047 67.8889 69.0275V73.1112H80.9445L91.9608 69.0301C91.9608 69.0301 94 68.1162 94 66.9882Z" fill="#FFDC5D"/>
<path d="M83.5556 94.0002H67.8889V73.1113H80.9445L83.5556 94.0002Z" fill="#9268CA"/>
<path d="M49.6112 50.9168H44.3889C43.6683 50.9168 43.0834 50.3319 43.0834 49.6112C43.0834 48.8906 43.6683 48.3057 44.3889 48.3057H49.6112C50.3318 48.3057 50.9167 48.8906 50.9167 49.6112C50.9167 50.3319 50.3318 50.9168 49.6112 50.9168Z" fill="#BF6952"/>
<path d="M53.5277 60.0554H52.2222C51.5015 60.0554 50.9166 59.4706 50.9166 58.7499C50.9166 58.0292 51.5015 57.4443 52.2222 57.4443H53.5277C54.2484 57.4443 54.8333 58.0292 54.8333 58.7499C54.8333 59.4706 54.2484 60.0554 53.5277 60.0554Z" fill="#DF1F32"/>
<path d="M36.5556 41.7777C35.1142 41.7777 33.9445 40.6079 33.9445 39.1666V36.5554C33.9445 35.1141 35.1142 33.9443 36.5556 33.9443C37.9969 33.9443 39.1667 35.1141 39.1667 36.5554V39.1666C39.1667 40.6079 37.9969 41.7777 36.5556 41.7777ZM57.4445 41.7777C56.0005 41.7777 54.8333 40.6079 54.8333 39.1666V36.5554C54.8333 35.1141 56.0005 33.9443 57.4445 33.9443C58.8884 33.9443 60.0556 35.1141 60.0556 36.5554V39.1666C60.0556 40.6079 58.8884 41.7777 57.4445 41.7777Z" fill="#662113"/>
</svg>
